# xmcd CD database file
#
# Track frame offsets:
#	150
#	20150
#	38803
#	53345
#	68950
#	89754
#	108022
#	124163
#	144218
#	161619
#	179307
#	197387
#	212834
#	231412
#	249015
#
# Disc length: 3566 seconds
#
# Revision: 3
# Processed by: cddbd v1.5.2PL0 Copyright (c) Steve Scherf et al.
# Submitted via: CDex 1.70beta2
#
DISCID=c60dec0f
DTITLE=Aki Sirkesalo - 30 unohtumatonta laulua
DYEAR=2006
DGENRE=Soul
TTITLE0=Punatukkainen
TTITLE1=Mä tuun kotiin
TTITLE2=Mykkäkoulu
TTITLE3=Helena
TTITLE4=Enkeleitä onko heitä
TTITLE5=Senat sakaisin
TTITLE6=Tule mun luo
TTITLE7=Talismaani
TTITLE8=Melkein onnellinen
TTITLE9=Toijalan takana
TTITLE10=Mysteriet-Mysteeri (Ft. Lisa Nilsson)
TTITLE11=Mullonikäväsua
TTITLE12=Turistit
TTITLE13=Parempaa aikaa
TTITLE14=Tule nyt
EXTD=YEAR: 2006
EXTT0=
EXTT1=
EXTT2=
EXTT3=
EXTT4=
EXTT5=
EXTT6=
EXTT7=
EXTT8=
EXTT9=
EXTT10=
EXTT11=
EXTT12=
EXTT13=
EXTT14=
PLAYORDER=
